<?xml version="1.0" standalone="no"?>
<!DOCTYPE svg PUBLIC "-//W3C//DTD SVG 20010904//EN"
 "http://www.w3.org/TR/2001/REC-SVG-20010904/DTD/svg10.dtd">
<svg version="1.0" xmlns="http://www.w3.org/2000/svg"
 width="192.000000pt" height="192.000000pt" viewBox="0 0 192.000000 192.000000"
 preserveAspectRatio="xMidYMid meet">
<metadata>
Created by potrace 1.14, written by Peter Selinger 2001-2017
</metadata>
<g transform="translate(0.000000,192.000000) scale(0.100000,-0.100000)"
fill="#000000" stroke="none">
<path d="M836 1769 c-102 -12 -213 -49 -301 -101 -84 -49 -235 -199 -284 -281
-108 -183 -136 -448 -70 -663 44 -145 149 -302 263 -395 77 -63 226 -139 272
-139 42 0 46 12 42 139 l-3 95 -61 -3 c-120 -5 -177 25 -224 118 -15 31 -48
76 -71 99 -31 30 -40 45 -32 53 16 16 88 -7 117 -39 14 -15 42 -46 63 -69 47
-52 106 -71 168 -55 36 10 42 17 60 64 11 29 21 56 23 61 2 4 -12 7 -31 7 -48
0 -164 37 -210 67 -77 49 -132 228 -107 346 6 31 24 75 39 98 24 35 27 47 20
73 -13 45 -11 85 7 145 15 52 16 53 47 47 18 -3 69 -24 115 -47 80 -39 85 -40
133 -30 65 14 234 14 299 0 50 -11 54 -10 133 30 45 22 97 43 115 46 30 6 33
4 48 -32 13 -29 15 -57 11 -117 -5 -77 -5 -80 28 -128 51 -74 59 -188 20 -298
-40 -114 -114 -167 -265 -192 -41 -6 -76 -13 -78 -14 -2 -1 7 -19 20 -40 21
-36 23 -54 28 -229 l5 -190 33 -3 c24 -2 58 9 116 37 489 243 605 920 223
1303 -68 68 -167 136 -254 174 -123 55 -310 80 -457 63z"/>
<path d="M435 660 c3 -5 8 -10 11 -10 2 0 4 5 4 10 0 6 -5 10 -11 10 -5 0 -7
-4 -4 -10z"/>
<path d="M465 630 c3 -5 8 -10 11 -10 2 0 4 5 4 10 0 6 -5 10 -11 10 -5 0 -7
-4 -4 -10z"/>
<path d="M496 586 c3 -9 11 -16 16 -16 13 0 5 23 -10 28 -7 2 -10 -2 -6 -12z"/>
<path d="M535 550 c-7 -12 2 -30 16 -30 12 0 12 27 0 35 -5 3 -12 1 -16 -5z"/>
<path d="M590 506 c0 -9 7 -16 16 -16 17 0 14 22 -4 28 -7 2 -12 -3 -12 -12z"/>
<path d="M726 513 c-11 -11 -6 -23 9 -23 8 0 15 4 15 9 0 13 -16 22 -24 14z"/>
<path d="M655 501 c-7 -12 12 -24 25 -16 11 7 4 25 -10 25 -5 0 -11 -4 -15 -9z"/>
</g>
</svg>
